<svg id="Слой_1" xmlns="http://www.w3.org/2000/svg" viewBox="0 0 161.2 220.5"><style>.st0{fill:#fff}</style><g id="white_tuki"><path class="st0" d="M69.8,184.5c-1.6-1.1-3.2-2.2-4.5-3.6c-3.8-4-6.2-8.7-7.5-14c-1.5-5.8-1.1-11.6-0.3-17.4 c0.2-1.7,0.3-1.7-1.3-1.2c-4.4,1.5-9,2.4-13.7,2.2c-1.7-0.1-3.3-0.1-5-0.3c-0.7,0-1.1,0.2-1.4,0.9c-0.9,2.3-2.3,4.1-4,5.8 c-2.2,2.2-4.8,3.5-8,3.3c-4.5-0.2-8.2-3.6-8.5-8.1c-0.1-1.4-0.2-2.8-0.3-4.2c-0.1-0.8-0.4-1.2-1.3-1.2 c-7.7-0.1-11.4-6.7-10.8-12.8c0.3-2.7,1.3-5,2.7-7.3c0.5-0.9,0.6-1.3-0.5-1.8c-2.4-1.3-4.4-3-5.1-5.7c-0.9-3.1,0.3-5.7,2-8.1 c1.7-2.4,3.9-4.5,6.2-6.4c2.5-2.1,3.9-4.5,2.8-7.9c-0.3-0.9-0.4-1.8-0.5-2.7c-0.6-4.6-0.6-9.2,1.4-13.6c2.3-5,6.3-7.7,11.5-7.3 c1.6,0.1,2.5,0.9,2.8,2.5c0.2,1.2-0.1,2.3-0.4,3.4c-0.7,2.3-1.2,4.6-1.6,7c-0.8,4.5,0.2,8.3,3.7,11.5c5.8,5.1,11.9,9.7,18.8,13.3 c2.8,1.5,5.8,2.7,9.1,2.8c4.9,0.2,9.4-1.1,13.9-2.9c0.7-0.3,1.1-0.8,1.2-1.5c0.4-1.7,0.7-3.5,1.2-5.2c-2.6,0.6-9.1-2.3-10.1-5.3 c-3.4,3.4-4.8-5.5-3.3-9.2c3.2-7.2,11.8-10.6,11.8-10.6c-2.7-9-6.2-22.2-5.6-31.4c0.8-6.4,2.1-12.7,5.5-18.3 c0.2-0.3,0.3-0.6,0.5-0.8c1.6-2.8,3.4-5.5,5.6-7.9c5.1-5.5,11.4-9.2,18.7-11.1c0.5-0.1,0.9-0.2,1.2-0.7c1.1-1.8,2.7-3.1,4.4-4.3 c6.2-4.4,13.1-5.3,20.4-4.1c3,0.5,6.1,1.3,8,3.8c1.7,2.3,4,3.3,6.5,4.1c0.1,0,0.3,0.1,0.4,0.2c4.3,1.9,7.4,5,8.2,9.8 c0.6,3.7,0.7,7.6,0.2,11.3c-0.6,4.9-0.5,9.7,1.6,14.2c0.6,1.2,1.3,2.3,1.8,3.5c0.5,1,0.7,2.2-0.1,3.1c-0.7,0.9-1.8,0.6-2.7,0.3 c-0.9-0.3-1.7-0.5-2.5-1.1c-0.7-0.5-0.8-0.1-0.8,0.5c-0.5,7.6-2.7,14.6-6.6,21.2c-3.9,6.7-8.7,12.7-13.2,18.9 c-2.5,3.5-5,7.1-6.6,11.2c-0.3,0.7-0.4,1.4-0.2,2.1c0.8,3,1.7,6,2.7,8.9c0.2,0.7,0.6,1,1.4,1c2.5-0.1,4.7,0.9,6.7,2.3 c2.8,2,4.9,4.6,6.9,7.3c5.4,7.7,9.4,15.9,8.8,25.7c-0.3,4.8-1.4,9.4-3.8,13.7c-2.1,3.6-4.9,6.5-8.1,9.2c-1.6,1.4-1.4,1.9,0.1,2.8 c5.5,3.3,11.3,6.2,17.4,8.2c2.9,1,5.9,1.3,9,0.6c1.1-0.3,2.3-0.2,3.4-0.1c1.2,0.1,1.6,0.6,1.4,1.8c-0.4,2.4-1.8,4.1-3.8,5.3 c-2.4,1.5-5.1,1.8-7.9,1.7c-1,0-1.6,0.2-2,1.1c-1,2.1-2.9,3.2-5.1,3.6c-2.3,0.4-4.5-0.1-6.6-0.7c-2.9-0.9-5.6-2.4-8.2-4 c0.5,0.7,1.1,1.2,1.8,1.6c1.1,0.7,2.2,1.4,3.1,2.3c0.8,1,0.7,1.6-0.2,2.4c-0.7,0.5-1.4,0.9-2.2,1c-2.7,0.5-5.1-0.5-7.2-2.1 c-3.1-2.3-5.6-5.2-7.5-8.6c-0.2-0.4-0.3-1.1-0.8-1c-0.7,0.2-0.4,0.9-0.3,1.4c0.1,0.5,0.1,1,0.1,1.5c-0.1,1,0.3,1.7,0.9,2.5 c1,1.1,2.1,1.9,3.2,2.9c3.9,3.4,5.5,7.7,4.7,12.7c-0.6,3.9-2.8,7.1-5.4,10.1c-2.5,2.8-6.1,2.1-7.3-1.4c-0.2-0.5-0.3-1.1-0.4-1.6 c-0.6-3.7-0.1-7.2,1.1-10.7c0.2-0.4,0.7-1.1,0.2-1.4c-0.6-0.4-1.4-0.3-2,0.1c-0.3,0.2-0.6,0.5-0.8,0.8c-0.7,1-1.2,2-1.3,3.2 c-0.3,2.2-1.3,4-3.3,5.2c-3.4,2-7.1,3.6-10.5,5.8c-0.6,0.4-1.3,0.6-2,0.7c-3,0.7-4.9-0.7-5.3-3.7c-0.2-1.2,0.1-2.4,0.4-3.6 c0.4-1.4,1-2.6,1.7-4.1c-0.5,0.2-0.7,0.3-1,0.5c-2.7,1.4-5.4,2.5-8.3,3.4c-2.5,0.8-5.1,1.5-7.8,1.4c-3.5-0.1-4.3-1.3-3.3-4.6 c0.1-0.2,0.1-0.4,0.2-0.6c2.1-5.5,6.2-8.9,11.4-11.2c4.1-1.8,8.4-1.7,12.7-0.9c3,0.6,6.5-0.9,7.7-3.3c-2.6,0.3-5.1,0.6-7.7,0.4 c-1-0.1-2.1,0-3.2,0.2c-6.5,1.4-12.8,3.4-19,5.7c-3.8,1.4-7.6,3.1-11.5,4.3c-1.7,0.5-3.5,1-5.3,0.9c-2.4-0.1-3.4-1.4-2.8-3.8 c0.1-0.3,0.4-0.6,0-1c-1.4,0.4-2.8,0.6-4.3,0.5c-2.9-0.1-3.9-1.8-2.5-4.3c1-1.7,2.1-3.2,3.3-4.7c3.8-4.7,8.9-6.1,14.7-5.8 c3.4,0.2,6.7,0.7,10.4,0.5C71,185.4,70.4,185,69.8,184.5z M133.8,23.2c0.2,2,2,3.1,2.9,4.9c1.4-5.2,0.8-10.7-3.2-14.3 C133.3,17.1,133.5,20.2,133.8,23.2z M109,8.1c1.4,0.4,2.4,0.8,3.6,0.3c2.3-0.9,4.8-1.6,7.2-2C116.2,6.4,112.7,6.6,109,8.1z M125.2,12.5c-0.8-0.2-1.6,0.4-2.4,0.8c-0.5,0.3-0.2,0.5,0.1,0.7c0.5,0.4,0.9,0.7,1.4,1.1c0.4,0.3,0.8,0.9,1.3,0.7 c0.4-0.2,0.1-0.9,0.2-1.3C125.7,13.7,125.9,12.7,125.2,12.5z" id="XMLID_2_"/></g></svg>